<?xml version="1.0" encoding="utf-8"?>
<!-- Generator: Adobe Illustrator 23.0.6, SVG Export Plug-In . SVG Version: 6.00 Build 0)  -->
<svg version="1.1" id="Layer_1" xmlns="http://www.w3.org/2000/svg" xmlns:xlink="http://www.w3.org/1999/xlink" x="0px" y="0px"
	 viewBox="0 0 566.93 566.93" style="enable-background:new 0 0 566.93 566.93;" xml:space="preserve">
<style type="text/css">
	.st0{fill:#FFFFFF;}
</style>
<path class="st0" d="M417.01,442.24c-72.47,0-135.9-38.68-170.8-96.51c77.3,25.35,111.97-39.64,85.12-71.1
	c-30.79-36.07-83.95-2.98-100.66-21.57c-14.14-15.73-10.04-44.24-8.44-52.66c19.47-89.7,99.26-156.9,194.79-156.9
	c10.43,0,20.6,1.04,30.6,2.59c-44.54-29.12-97.68-46.2-154.87-46.2C136.13-0.11,9.18,126.84,9.18,283.45
	C9.18,440.05,136.13,567,292.74,567c121.03,0,224.07-75.97,264.76-182.72C521.46,420.09,471.83,442.24,417.01,442.24z
	 M134.94,302.26c-1.71,0.14-3.41,0.22-5.1,0.22c-31.45,0-58.08-23.2-60.52-53.76c-0.44-5.58,3.72-10.46,9.3-10.9
	c5.57-0.4,10.45,3.7,10.9,9.28c1.68,21.08,21.26,36.57,43.83,34.99c22.48-1.8,39.41-20.39,37.74-41.48
	c-0.44-5.56,3.72-10.44,9.3-10.88c5.63-0.45,10.45,3.7,10.9,9.3C193.82,271.22,168.55,299.59,134.94,302.26z"/>
</svg>
