<svg id="Layer_1" data-name="Layer 1" xmlns="http://www.w3.org/2000/svg" viewBox="0 0 567.18 564.24"><defs><style>.cls-1{fill:#fff;}</style></defs><title>SUN</title><path class="cls-1" d="M290,367.27c2.65,0,5.36,0,8.07-.13a78.17,78.17,0,0,0,29.31-8.24c-34.72-33.41-65.64-12.79-78-1.54,19.38,10.73,40,9.94,40.24,9.92Z" transform="translate(0.18 -1.73)"/><path class="cls-1" d="M567,347.83C398.47,201,533.67,69.73,533.67,69.73s-59.08,55.51-147.19,33.93S290.58,1.73,290.58,1.73C246.73,156,108.9,70.36,108.9,70.36c49.87,127.16-69,139.77-69,139.77C143.65,346.05-.18,427.91-.18,427.91c186.57-26.75,186.42,124.46,186.42,124.46C342.35,456,444.29,566,444.29,566,389.18,377.49,567,347.83,567,347.83ZM155.83,259.22a8,8,0,0,1-7.82-8.11c.3-16.49,5.64-32,15-43.6C172.9,195.29,186,188.73,200,189s26.81,7.33,36.21,19.91c8.95,12,13.71,27.64,13.41,44.12a8,8,0,0,1-8,7.83h-.15a8,8,0,0,1-7.82-8.12c.24-13-3.39-25.14-10.23-34.29-6.39-8.55-14.82-13.34-23.75-13.51s-17.53,4.31-24.23,12.62c-7.17,8.89-11.26,20.92-11.5,33.88A8,8,0,0,1,155.83,259.22Zm237.4,47.57a38.86,38.86,0,0,1-5.89.46,36.22,36.22,0,0,1-11.24-1.81c-2.75,73.51-76.58,77.6-77.36,77.63-2.91.11-5.8.16-8.61.14-.32,0-.89,0-1.7,0-8.05,0-39-1.49-62.39-23.19-14.71-13.65-23.4-32.37-25.9-55.76a36.35,36.35,0,0,1-14.32,3,37.74,37.74,0,0,1-5.9-.46A8,8,0,1,1,182.39,291c14.27,2.24,23-10.21,24.14-12.75a8,8,0,1,1,14.56,6.48,31.31,31.31,0,0,1-4,6.41C235,304.94,254,311.8,281.35,314.5c46.28,4.58,69-11.32,77.67-19.94a36.63,36.63,0,0,1-7-9.79,8,8,0,0,1,14.57-6.48c1.13,2.54,9.89,15,24.14,12.75a8,8,0,0,1,2.46,15.75Zm22.94-46H416a8,8,0,0,1-7.82-8.12c.48-26-14.76-47.44-34-47.8-8.81-.18-17.53,4.31-24.23,12.62-7.17,8.89-11.26,20.92-11.5,33.88a8,8,0,1,1-15.93-.29c.3-16.49,5.64-32,15-43.6,9.86-12.22,23-18.75,36.93-18.55,28,.52,50.26,29.25,49.61,64A8,8,0,0,1,416.17,260.82Z" transform="translate(0.18 -1.73)"/></svg>